<svg width="14" height="11" viewBox="0 0 14 11" fill="none" xmlns="http://www.w3.org/2000/svg">
<g clip-path="url(#clip0_15_171)">
<path d="M6.01345 0.736917C5.39876 0.133206 4.40126 0.133206 3.78657 0.736917L0.750322 3.71895C0.135635 4.32266 0.135635 5.30235 0.750322 5.90606L3.78657 8.88809C4.40126 9.4918 5.39876 9.4918 6.01345 8.88809L9.0497 5.90606C9.66438 5.30235 9.66438 4.32266 9.0497 3.71895L6.01345 0.736917ZM4.37501 4.8125C4.37501 4.67575 4.43032 4.5446 4.52878 4.4479C4.62724 4.3512 4.76077 4.29688 4.90001 4.29688C5.03925 4.29688 5.17278 4.3512 5.27124 4.4479C5.3697 4.5446 5.42501 4.67575 5.42501 4.8125C5.42501 4.94926 5.3697 5.08041 5.27124 5.1771C5.17278 5.2738 5.03925 5.32813 4.90001 5.32813C4.76077 5.32813 4.62724 5.2738 4.52878 5.1771C4.43032 5.08041 4.37501 4.94926 4.37501 4.8125ZM2.10001 4.29688C2.23925 4.29688 2.37278 4.3512 2.47124 4.4479C2.5697 4.5446 2.62501 4.67575 2.62501 4.8125C2.62501 4.94926 2.5697 5.08041 2.47124 5.1771C2.37278 5.2738 2.23925 5.32813 2.10001 5.32813C1.96077 5.32813 1.82724 5.2738 1.72878 5.1771C1.63032 5.08041 1.57501 4.94926 1.57501 4.8125C1.57501 4.67575 1.63032 4.5446 1.72878 4.4479C1.82724 4.3512 1.96077 4.29688 2.10001 4.29688ZM4.90001 8.07813C4.76077 8.07813 4.62724 8.0238 4.52878 7.9271C4.43032 7.83041 4.37501 7.69926 4.37501 7.5625C4.37501 7.42575 4.43032 7.2946 4.52878 7.1979C4.62724 7.1012 4.76077 7.04688 4.90001 7.04688C5.03925 7.04688 5.17278 7.1012 5.27124 7.1979C5.3697 7.2946 5.42501 7.42575 5.42501 7.5625C5.42501 7.69926 5.3697 7.83041 5.27124 7.9271C5.17278 8.0238 5.03925 8.07813 4.90001 8.07813ZM7.70001 4.29688C7.83925 4.29688 7.97278 4.3512 8.07124 4.4479C8.1697 4.5446 8.22501 4.67575 8.22501 4.8125C8.22501 4.94926 8.1697 5.08041 8.07124 5.1771C7.97278 5.2738 7.83925 5.32813 7.70001 5.32813C7.56077 5.32813 7.42724 5.2738 7.32878 5.1771C7.23032 5.08041 7.17501 4.94926 7.17501 4.8125C7.17501 4.67575 7.23032 4.5446 7.32878 4.4479C7.42724 4.3512 7.56077 4.29688 7.70001 4.29688ZM4.90001 2.57813C4.76077 2.57813 4.62724 2.5238 4.52878 2.42711C4.43032 2.33041 4.37501 2.19926 4.37501 2.0625C4.37501 1.92575 4.43032 1.7946 4.52878 1.6979C4.62724 1.6012 4.76077 1.54688 4.90001 1.54688C5.03925 1.54688 5.17278 1.6012 5.27124 1.6979C5.3697 1.7946 5.42501 1.92575 5.42501 2.0625C5.42501 2.19926 5.3697 2.33041 5.27124 2.42711C5.17278 2.5238 5.03925 2.57813 4.90001 2.57813ZM7.00001 9.625C7.00001 10.3834 7.62782 11 8.40001 11H12.6C13.3722 11 14 10.3834 14 9.625V5.5C14 4.7416 13.3722 4.125 12.6 4.125H10.0997C10.3534 4.89844 10.1675 5.7793 9.54407 6.3916L7.00001 8.89024V9.625ZM10.5 7.04688C10.6392 7.04688 10.7728 7.1012 10.8712 7.1979C10.9697 7.2946 11.025 7.42575 11.025 7.5625C11.025 7.69926 10.9697 7.83041 10.8712 7.9271C10.7728 8.0238 10.6392 8.07813 10.5 8.07813C10.3608 8.07813 10.2272 8.0238 10.1288 7.9271C10.0303 7.83041 9.97501 7.69926 9.97501 7.5625C9.97501 7.42575 10.0303 7.2946 10.1288 7.1979C10.2272 7.1012 10.3608 7.04688 10.5 7.04688Z" fill="black"/>
</g>
<defs>
<clipPath id="clip0_15_171">
<rect width="14" height="11" fill="white"/>
</clipPath>
</defs>
</svg>
