<svg width="14" height="14" viewBox="0 0 14 14" fill="none" xmlns="http://www.w3.org/2000/svg">
<g clip-path="url(#clip0_14_136)">
<path d="M9.91757 0.527733L8.59413 1.85117L12.1488 5.40586L13.4723 4.08242C14.1559 3.39883 14.1559 2.2914 13.4723 1.60781L12.3949 0.527733C11.7113 -0.155861 10.6039 -0.155861 9.92031 0.527733H9.91757ZM7.97617 2.46914L1.60234 8.8457C1.31796 9.13008 1.11015 9.48281 0.995306 9.86836L0.0273373 13.1578C-0.041022 13.3902 0.0218686 13.6391 0.1914 13.8086C0.360931 13.9781 0.609759 14.041 0.839447 13.9754L4.1289 13.0074C4.51445 12.8926 4.86718 12.6848 5.15156 12.4004L11.5309 6.02383L7.97617 2.46914Z" fill="black"/>
</g>
<defs>
<clipPath id="clip0_14_136">
<rect width="14" height="14" fill="white"/>
</clipPath>
</defs>
</svg>
