<svg width="14" height="11" viewBox="0 0 14 11" fill="none" xmlns="http://www.w3.org/2000/svg">
<g clip-path="url(#clip0_15_173)">
<path d="M9.8 0.6875V0.923828C9.8 1.74453 10.1325 2.53086 10.7231 3.11094L11.1825 3.56211C11.6419 4.01328 11.9 4.62559 11.9 5.26367V5.5C11.9 5.88027 11.5872 6.1875 11.2 6.1875C10.8128 6.1875 10.5 5.88027 10.5 5.5V5.26367C10.5 4.99082 10.3884 4.72871 10.1916 4.53535L9.73219 4.08418C8.87906 3.24629 8.4 2.10762 8.4 0.923828V0.6875C8.4 0.307227 8.71281 0 9.1 0C9.48719 0 9.8 0.307227 9.8 0.6875ZM12.6 5.5V5.26367C12.6 4.44297 12.2675 3.65664 11.6769 3.07656L11.2175 2.62539C10.7581 2.17422 10.5 1.56191 10.5 0.923828V0.6875C10.5 0.307227 10.8128 0 11.2 0C11.5872 0 11.9 0.307227 11.9 0.6875V0.923828C11.9 1.19668 12.0116 1.45879 12.2084 1.65215L12.6678 2.10332C13.5209 2.94121 14 4.07773 14 5.26367V5.5C14 5.88027 13.6872 6.1875 13.3 6.1875C12.9128 6.1875 12.6 5.88027 12.6 5.5ZM0 8.9375C0 8.1791 0.627813 7.5625 1.4 7.5625H9.1C9.48719 7.5625 9.8 7.86973 9.8 8.25V10.3125C9.8 10.6928 9.48719 11 9.1 11H1.4C0.627813 11 0 10.3834 0 9.625V8.9375ZM4.9 8.9375V9.625H8.4V8.9375H4.9ZM11.2 7.5625C11.5872 7.5625 11.9 7.86973 11.9 8.25V10.3125C11.9 10.6928 11.5872 11 11.2 11C10.8128 11 10.5 10.6928 10.5 10.3125V8.25C10.5 7.86973 10.8128 7.5625 11.2 7.5625ZM13.3 7.5625C13.6872 7.5625 14 7.86973 14 8.25V10.3125C14 10.6928 13.6872 11 13.3 11C12.9128 11 12.6 10.6928 12.6 10.3125V8.25C12.6 7.86973 12.9128 7.5625 13.3 7.5625Z" fill="black"/>
</g>
<defs>
<clipPath id="clip0_15_173">
<rect width="14" height="11" fill="white"/>
</clipPath>
</defs>
</svg>
