<svg width="13" height="11" viewBox="0 0 13 11" fill="none" xmlns="http://www.w3.org/2000/svg">
<g clip-path="url(#clip0_15_183)">
<path d="M2.52778 2.0625C1.92969 2.0625 1.44444 2.52441 1.44444 3.09375V5.5H3.61111V3.09375C3.61111 2.52441 3.12587 2.0625 2.52778 2.0625ZM0 3.09375C0 1.76387 1.13073 0.6875 2.52778 0.6875C3.92483 0.6875 5.05556 1.76387 5.05556 3.09375V7.90625C5.05556 9.23613 3.92483 10.3125 2.52778 10.3125C1.13073 10.3125 0 9.23613 0 7.90625V3.09375ZM12.5238 8.58086C12.3635 8.84512 11.9889 8.8623 11.7609 8.64746L7.52691 4.61699C7.30122 4.40215 7.31701 4.04336 7.59687 3.89082C8.125 3.60293 8.73663 3.4375 9.38889 3.4375C11.384 3.4375 13 4.97578 13 6.875C13 7.4959 12.8262 8.07812 12.5238 8.58086ZM11.1809 9.85918C10.6528 10.1471 10.0411 10.3125 9.38889 10.3125C7.39375 10.3125 5.77778 8.77422 5.77778 6.875C5.77778 6.2541 5.95156 5.67188 6.25399 5.16914C6.41424 4.90488 6.78889 4.8877 7.01684 5.10254L11.2509 9.13301C11.4766 9.34785 11.4608 9.70664 11.1809 9.85918Z" fill="black"/>
</g>
<defs>
<clipPath id="clip0_15_183">
<rect width="13" height="11" fill="white"/>
</clipPath>
</defs>
</svg>
