<svg width="17" height="15" viewBox="0 0 17 15" fill="none" xmlns="http://www.w3.org/2000/svg">
<path fill-rule="evenodd" clip-rule="evenodd" d="M13.4585 1.42905C13.5485 1.22761 13.4929 1.04924 13.3165 0.972175C13.1401 0.895115 12.8743 0.932798 12.6358 1.07049L11.6209 1.65641L2.69007 6.81264L0.863277 7.86734C0.624782 8.00504 0.459253 8.21638 0.437778 8.40769C0.416301 8.59901 0.542967 8.73637 0.762449 8.75911L2.00854 8.89006L1.49891 10.0347C1.38466 10.288 1.50589 10.498 1.78328 10.5272L3.02937 10.6582L2.51974 11.8028C2.4055 12.0561 2.52672 12.2661 2.80411 12.2954L4.05021 12.4263L3.54057 13.571C3.45052 13.7724 3.50614 13.9508 3.68257 14.0278C3.85899 14.1049 4.12478 14.0672 4.36328 13.9295L6.19007 12.8748L15.1209 7.71859L16.1358 7.13267C16.3743 6.99498 16.5398 6.78364 16.5613 6.59232C16.5827 6.401 16.4561 6.26364 16.2366 6.24091L14.9905 6.10995L15.5001 4.96532C15.6144 4.71203 15.4932 4.50206 15.2158 4.47277L13.9697 4.34182L14.4793 3.19719C14.5935 2.94389 14.4723 2.73393 14.1949 2.70464L12.9488 2.57368L13.4585 1.42905Z" fill="black"/>
<rect x="1.98676" y="7.21869" width="1" height="7" transform="rotate(-30 1.98676 7.21869)" fill="#D9D9D9"/>
<rect x="10.647" y="2.21869" width="1" height="7" transform="rotate(-30 10.647 2.21869)" fill="#D9D9D9"/>
</svg>
