<svg width="34" height="34" viewBox="0 0 34 34" fill="none" xmlns="http://www.w3.org/2000/svg">
<path d="M0 16.439C0 14.5534 0 13.6106 0.585786 13.0248C1.17157 12.439 2.11438 12.439 4 12.439H30C31.8856 12.439 32.8284 12.439 33.4142 13.0248C34 13.6106 34 14.5534 34 16.439V18.3902C34 20.2759 34 21.2187 33.4142 21.8045C32.8284 22.3902 31.8856 22.3902 30 22.3902H4C2.11438 22.3902 1.17157 22.3902 0.585786 21.8045C0 21.2187 0 20.2759 0 18.3902V16.439Z" fill="white"/>
<path d="M16.439 34C14.5534 34 13.6106 34 13.0248 33.4142C12.439 32.8284 12.439 31.8856 12.439 30L12.439 4C12.439 2.11438 12.439 1.17157 13.0248 0.585787C13.6106 3.83771e-07 14.5534 3.42559e-07 16.439 2.60136e-07L18.3902 1.74845e-07C20.2759 9.24225e-08 21.2187 5.12111e-08 21.8045 0.585786C22.3902 1.17157 22.3902 2.11438 22.3902 4L22.3902 30C22.3902 31.8856 22.3902 32.8284 21.8045 33.4142C21.2187 34 20.2759 34 18.3902 34H16.439Z" fill="white"/>
</svg>
